<mxfile host="app.diagrams.net" agent="Mozilla/5.0 (Windows NT 10.0; Win64; x64) AppleWebKit/537.36 (KHTML, like Gecko) Chrome/138.0.0.0 Safari/537.36 Edg/138.0.0.0" version="28.0.0">
  <diagram name="home" id="iTSuItHdB6pbhppZd-6R">
    <mxGraphModel dx="3686" dy="1588" grid="1" gridSize="10" guides="1" tooltips="1" connect="1" arrows="1" fold="1" page="1" pageScale="1" pageWidth="850" pageHeight="1100" math="0" shadow="0">
      <root>
        <mxCell id="0" />
        <mxCell id="1" parent="0" />
        <mxCell id="g96ALYgHXhLjaabrmShe-29" value="" style="rounded=0;whiteSpace=wrap;html=1;fillColor=none;" vertex="1" parent="1">
          <mxGeometry x="-160" y="30" width="1200" height="60" as="geometry" />
        </mxCell>
        <mxCell id="g96ALYgHXhLjaabrmShe-28" value="" style="rounded=0;whiteSpace=wrap;html=1;fillColor=none;" vertex="1" parent="1">
          <mxGeometry x="-160" width="1200" height="30" as="geometry" />
        </mxCell>
        <mxCell id="g96ALYgHXhLjaabrmShe-1" value="" style="rounded=0;whiteSpace=wrap;html=1;fillColor=none;movable=0;" vertex="1" parent="1">
          <mxGeometry x="-160" width="1200" height="1670" as="geometry" />
        </mxCell>
        <mxCell id="g96ALYgHXhLjaabrmShe-5" value="SIGN IN | SIGN UP" style="text;html=1;align=center;verticalAlign=middle;whiteSpace=wrap;rounded=0;" vertex="1" parent="1">
          <mxGeometry x="920" y="5" width="110" height="20" as="geometry" />
        </mxCell>
        <mxCell id="g96ALYgHXhLjaabrmShe-6" value="O LANGUAGE V" style="text;html=1;align=center;verticalAlign=middle;whiteSpace=wrap;rounded=0;" vertex="1" parent="1">
          <mxGeometry x="800" y="5" width="100" height="20" as="geometry" />
        </mxCell>
        <mxCell id="g96ALYgHXhLjaabrmShe-10" value="" style="verticalLabelPosition=bottom;verticalAlign=top;html=1;shape=mxgraph.basic.star" vertex="1" parent="1">
          <mxGeometry x="-111.58" y="45" width="31.58" height="30" as="geometry" />
        </mxCell>
        <mxCell id="g96ALYgHXhLjaabrmShe-13" value="&lt;font&gt;Logo&lt;/font&gt;" style="text;html=1;align=center;verticalAlign=middle;whiteSpace=wrap;rounded=0;fontSize=16;" vertex="1" parent="1">
          <mxGeometry x="-80" y="45" width="51.58" height="30" as="geometry" />
        </mxCell>
        <mxCell id="g96ALYgHXhLjaabrmShe-14" value="" style="verticalLabelPosition=bottom;verticalAlign=top;html=1;shape=mxgraph.basic.star" vertex="1" parent="1">
          <mxGeometry y="50" width="21.05" height="20" as="geometry" />
        </mxCell>
        <mxCell id="g96ALYgHXhLjaabrmShe-15" value="CATEGORY 1" style="text;html=1;align=center;verticalAlign=middle;whiteSpace=wrap;rounded=0;fontSize=16;" vertex="1" parent="1">
          <mxGeometry x="21.05" y="45" width="110" height="30" as="geometry" />
        </mxCell>
        <mxCell id="g96ALYgHXhLjaabrmShe-16" value="" style="verticalLabelPosition=bottom;verticalAlign=top;html=1;shape=mxgraph.basic.star" vertex="1" parent="1">
          <mxGeometry x="160" y="50" width="21.05" height="20" as="geometry" />
        </mxCell>
        <mxCell id="g96ALYgHXhLjaabrmShe-17" value="CATEGORY 2" style="text;html=1;align=center;verticalAlign=middle;whiteSpace=wrap;rounded=0;fontSize=16;" vertex="1" parent="1">
          <mxGeometry x="181.05" y="45" width="110" height="30" as="geometry" />
        </mxCell>
        <mxCell id="g96ALYgHXhLjaabrmShe-18" value="" style="verticalLabelPosition=bottom;verticalAlign=top;html=1;shape=mxgraph.basic.star" vertex="1" parent="1">
          <mxGeometry x="320" y="50" width="21.05" height="20" as="geometry" />
        </mxCell>
        <mxCell id="g96ALYgHXhLjaabrmShe-19" value="CATEGORY 3" style="text;html=1;align=center;verticalAlign=middle;whiteSpace=wrap;rounded=0;fontSize=16;" vertex="1" parent="1">
          <mxGeometry x="341.05" y="45" width="110" height="30" as="geometry" />
        </mxCell>
        <mxCell id="g96ALYgHXhLjaabrmShe-20" value="" style="verticalLabelPosition=bottom;verticalAlign=top;html=1;shape=mxgraph.basic.star" vertex="1" parent="1">
          <mxGeometry x="480" y="50" width="21.05" height="20" as="geometry" />
        </mxCell>
        <mxCell id="g96ALYgHXhLjaabrmShe-21" value="CATEGORY 4" style="text;html=1;align=center;verticalAlign=middle;whiteSpace=wrap;rounded=0;fontSize=16;" vertex="1" parent="1">
          <mxGeometry x="501.05" y="45" width="110" height="30" as="geometry" />
        </mxCell>
        <mxCell id="g96ALYgHXhLjaabrmShe-22" value="" style="shape=waypoint;sketch=0;fillStyle=solid;size=6;pointerEvents=1;points=[];fillColor=none;resizable=0;rotatable=0;perimeter=centerPerimeter;snapToPoint=1;" vertex="1" parent="1">
          <mxGeometry x="630" y="50" width="20" height="20" as="geometry" />
        </mxCell>
        <mxCell id="g96ALYgHXhLjaabrmShe-23" value="" style="shape=waypoint;sketch=0;fillStyle=solid;size=6;pointerEvents=1;points=[];fillColor=none;resizable=0;rotatable=0;perimeter=centerPerimeter;snapToPoint=1;" vertex="1" parent="1">
          <mxGeometry x="640" y="50" width="20" height="20" as="geometry" />
        </mxCell>
        <mxCell id="g96ALYgHXhLjaabrmShe-24" value="" style="shape=waypoint;sketch=0;fillStyle=solid;size=6;pointerEvents=1;points=[];fillColor=none;resizable=0;rotatable=0;perimeter=centerPerimeter;snapToPoint=1;" vertex="1" parent="1">
          <mxGeometry x="650" y="50" width="20" height="20" as="geometry" />
        </mxCell>
        <mxCell id="g96ALYgHXhLjaabrmShe-26" value="SEARCH" style="shape=hexagon;perimeter=hexagonPerimeter2;whiteSpace=wrap;html=1;fixedSize=1;" vertex="1" parent="1">
          <mxGeometry x="900" y="40" width="60" height="40" as="geometry" />
        </mxCell>
        <mxCell id="g96ALYgHXhLjaabrmShe-27" value="CART" style="shape=hexagon;perimeter=hexagonPerimeter2;whiteSpace=wrap;html=1;fixedSize=1;" vertex="1" parent="1">
          <mxGeometry x="970" y="40" width="60" height="40" as="geometry" />
        </mxCell>
        <mxCell id="g96ALYgHXhLjaabrmShe-33" value="" style="rounded=0;whiteSpace=wrap;html=1;fillColor=#b0e3e6;strokeColor=#0e8088;" vertex="1" parent="1">
          <mxGeometry x="-160" y="90" width="790" height="350" as="geometry" />
        </mxCell>
        <mxCell id="g96ALYgHXhLjaabrmShe-35" value="" style="rounded=0;whiteSpace=wrap;html=1;fillColor=#b0e3e6;strokeColor=#0e8088;" vertex="1" parent="1">
          <mxGeometry x="640" y="90" width="400" height="170" as="geometry" />
        </mxCell>
        <mxCell id="g96ALYgHXhLjaabrmShe-36" value="" style="rounded=0;whiteSpace=wrap;html=1;fillColor=#b0e3e6;strokeColor=#0e8088;" vertex="1" parent="1">
          <mxGeometry x="640" y="270" width="400" height="170" as="geometry" />
        </mxCell>
        <mxCell id="g96ALYgHXhLjaabrmShe-37" value="New Collection" style="text;strokeColor=none;fillColor=none;html=1;fontSize=24;fontStyle=0;verticalAlign=middle;align=center;" vertex="1" parent="1">
          <mxGeometry x="-160" y="480" width="180" height="40" as="geometry" />
        </mxCell>
        <mxCell id="g96ALYgHXhLjaabrmShe-40" value="&lt;font style=&quot;font-size: 16px;&quot;&gt;VIEW ALL&lt;/font&gt;" style="rounded=0;whiteSpace=wrap;html=1;fillColor=none;" vertex="1" parent="1">
          <mxGeometry x="890" y="485" width="109" height="30" as="geometry" />
        </mxCell>
        <mxCell id="g96ALYgHXhLjaabrmShe-41" value="" style="rounded=0;whiteSpace=wrap;html=1;fillColor=#b0e3e6;strokeColor=#0e8088;" vertex="1" parent="1">
          <mxGeometry x="-140" y="520" width="200" height="200" as="geometry" />
        </mxCell>
        <mxCell id="g96ALYgHXhLjaabrmShe-42" value="" style="rounded=0;whiteSpace=wrap;html=1;fillColor=default;" vertex="1" parent="1">
          <mxGeometry x="-140" y="720" width="200" height="80" as="geometry" />
        </mxCell>
        <mxCell id="g96ALYgHXhLjaabrmShe-43" value="Product name" style="text;html=1;align=center;verticalAlign=middle;whiteSpace=wrap;rounded=0;fontSize=14;" vertex="1" parent="1">
          <mxGeometry x="-140" y="720" width="100" height="30" as="geometry" />
        </mxCell>
        <mxCell id="g96ALYgHXhLjaabrmShe-44" value="300.000" style="text;html=1;align=center;verticalAlign=middle;whiteSpace=wrap;rounded=0;fontSize=14;" vertex="1" parent="1">
          <mxGeometry x="-140" y="770" width="70" height="30" as="geometry" />
        </mxCell>
        <mxCell id="g96ALYgHXhLjaabrmShe-45" value="" style="rounded=0;whiteSpace=wrap;html=1;fillColor=#b0e3e6;strokeColor=#0e8088;" vertex="1" parent="1">
          <mxGeometry x="80" y="520" width="200" height="200" as="geometry" />
        </mxCell>
        <mxCell id="g96ALYgHXhLjaabrmShe-46" value="" style="rounded=0;whiteSpace=wrap;html=1;fillColor=default;" vertex="1" parent="1">
          <mxGeometry x="80" y="720" width="200" height="80" as="geometry" />
        </mxCell>
        <mxCell id="g96ALYgHXhLjaabrmShe-47" value="Product name" style="text;html=1;align=center;verticalAlign=middle;whiteSpace=wrap;rounded=0;fontSize=14;" vertex="1" parent="1">
          <mxGeometry x="80" y="720" width="100" height="30" as="geometry" />
        </mxCell>
        <mxCell id="g96ALYgHXhLjaabrmShe-48" value="300.000" style="text;html=1;align=center;verticalAlign=middle;whiteSpace=wrap;rounded=0;fontSize=14;" vertex="1" parent="1">
          <mxGeometry x="80" y="770" width="70" height="30" as="geometry" />
        </mxCell>
        <mxCell id="g96ALYgHXhLjaabrmShe-49" value="" style="rounded=0;whiteSpace=wrap;html=1;fillColor=#b0e3e6;strokeColor=#0e8088;" vertex="1" parent="1">
          <mxGeometry x="301.05" y="520" width="200" height="200" as="geometry" />
        </mxCell>
        <mxCell id="g96ALYgHXhLjaabrmShe-50" value="" style="rounded=0;whiteSpace=wrap;html=1;fillColor=default;" vertex="1" parent="1">
          <mxGeometry x="301.05" y="720" width="200" height="80" as="geometry" />
        </mxCell>
        <mxCell id="g96ALYgHXhLjaabrmShe-51" value="Product name" style="text;html=1;align=center;verticalAlign=middle;whiteSpace=wrap;rounded=0;fontSize=14;" vertex="1" parent="1">
          <mxGeometry x="301.05" y="720" width="100" height="30" as="geometry" />
        </mxCell>
        <mxCell id="g96ALYgHXhLjaabrmShe-52" value="300.000" style="text;html=1;align=center;verticalAlign=middle;whiteSpace=wrap;rounded=0;fontSize=14;" vertex="1" parent="1">
          <mxGeometry x="301.05" y="770" width="70" height="30" as="geometry" />
        </mxCell>
        <mxCell id="g96ALYgHXhLjaabrmShe-53" value="" style="rounded=0;whiteSpace=wrap;html=1;fillColor=#b0e3e6;strokeColor=#0e8088;" vertex="1" parent="1">
          <mxGeometry x="520" y="520" width="200" height="200" as="geometry" />
        </mxCell>
        <mxCell id="g96ALYgHXhLjaabrmShe-54" value="" style="rounded=0;whiteSpace=wrap;html=1;fillColor=default;" vertex="1" parent="1">
          <mxGeometry x="520" y="720" width="200" height="80" as="geometry" />
        </mxCell>
        <mxCell id="g96ALYgHXhLjaabrmShe-55" value="Product name" style="text;html=1;align=center;verticalAlign=middle;whiteSpace=wrap;rounded=0;fontSize=14;" vertex="1" parent="1">
          <mxGeometry x="520" y="720" width="100" height="30" as="geometry" />
        </mxCell>
        <mxCell id="g96ALYgHXhLjaabrmShe-56" value="300.000" style="text;html=1;align=center;verticalAlign=middle;whiteSpace=wrap;rounded=0;fontSize=14;" vertex="1" parent="1">
          <mxGeometry x="520" y="770" width="70" height="30" as="geometry" />
        </mxCell>
        <mxCell id="g96ALYgHXhLjaabrmShe-57" value="" style="rounded=0;whiteSpace=wrap;html=1;fillColor=#b0e3e6;strokeColor=#0e8088;" vertex="1" parent="1">
          <mxGeometry x="740" y="520" width="200" height="200" as="geometry" />
        </mxCell>
        <mxCell id="g96ALYgHXhLjaabrmShe-58" value="" style="rounded=0;whiteSpace=wrap;html=1;fillColor=default;" vertex="1" parent="1">
          <mxGeometry x="740" y="720" width="200" height="80" as="geometry" />
        </mxCell>
        <mxCell id="g96ALYgHXhLjaabrmShe-59" value="Product name" style="text;html=1;align=center;verticalAlign=middle;whiteSpace=wrap;rounded=0;fontSize=14;" vertex="1" parent="1">
          <mxGeometry x="740" y="720" width="100" height="30" as="geometry" />
        </mxCell>
        <mxCell id="g96ALYgHXhLjaabrmShe-60" value="300.000" style="text;html=1;align=center;verticalAlign=middle;whiteSpace=wrap;rounded=0;fontSize=14;" vertex="1" parent="1">
          <mxGeometry x="740" y="770" width="70" height="30" as="geometry" />
        </mxCell>
        <mxCell id="g96ALYgHXhLjaabrmShe-62" value="" style="rounded=0;whiteSpace=wrap;html=1;fillColor=#b0e3e6;strokeColor=#0e8088;" vertex="1" parent="1">
          <mxGeometry x="960" y="520" width="200" height="200" as="geometry" />
        </mxCell>
        <mxCell id="g96ALYgHXhLjaabrmShe-63" value="" style="rounded=0;whiteSpace=wrap;html=1;fillColor=default;" vertex="1" parent="1">
          <mxGeometry x="960" y="720" width="200" height="80" as="geometry" />
        </mxCell>
        <mxCell id="g96ALYgHXhLjaabrmShe-64" value="Product name" style="text;html=1;align=center;verticalAlign=middle;whiteSpace=wrap;rounded=0;fontSize=14;" vertex="1" parent="1">
          <mxGeometry x="960" y="720" width="100" height="30" as="geometry" />
        </mxCell>
        <mxCell id="g96ALYgHXhLjaabrmShe-65" value="300.000" style="text;html=1;align=center;verticalAlign=middle;whiteSpace=wrap;rounded=0;fontSize=14;" vertex="1" parent="1">
          <mxGeometry x="960" y="770" width="70" height="30" as="geometry" />
        </mxCell>
        <mxCell id="g96ALYgHXhLjaabrmShe-66" value="Popular Products" style="text;strokeColor=none;fillColor=none;html=1;fontSize=24;fontStyle=0;verticalAlign=middle;align=center;" vertex="1" parent="1">
          <mxGeometry x="-160" y="840" width="200" height="40" as="geometry" />
        </mxCell>
        <mxCell id="g96ALYgHXhLjaabrmShe-67" value="&lt;font style=&quot;font-size: 16px;&quot;&gt;VIEW ALL&lt;/font&gt;" style="rounded=0;whiteSpace=wrap;html=1;fillColor=none;" vertex="1" parent="1">
          <mxGeometry x="890" y="845" width="109" height="30" as="geometry" />
        </mxCell>
        <mxCell id="g96ALYgHXhLjaabrmShe-68" value="" style="rounded=0;whiteSpace=wrap;html=1;fillColor=#b0e3e6;strokeColor=#0e8088;" vertex="1" parent="1">
          <mxGeometry x="-140" y="880" width="200" height="200" as="geometry" />
        </mxCell>
        <mxCell id="g96ALYgHXhLjaabrmShe-69" value="" style="rounded=0;whiteSpace=wrap;html=1;fillColor=default;" vertex="1" parent="1">
          <mxGeometry x="-140" y="1080" width="200" height="80" as="geometry" />
        </mxCell>
        <mxCell id="g96ALYgHXhLjaabrmShe-70" value="Product name" style="text;html=1;align=center;verticalAlign=middle;whiteSpace=wrap;rounded=0;fontSize=14;" vertex="1" parent="1">
          <mxGeometry x="-140" y="1080" width="100" height="30" as="geometry" />
        </mxCell>
        <mxCell id="g96ALYgHXhLjaabrmShe-71" value="300.000" style="text;html=1;align=center;verticalAlign=middle;whiteSpace=wrap;rounded=0;fontSize=14;" vertex="1" parent="1">
          <mxGeometry x="-140" y="1130" width="70" height="30" as="geometry" />
        </mxCell>
        <mxCell id="g96ALYgHXhLjaabrmShe-72" value="" style="rounded=0;whiteSpace=wrap;html=1;fillColor=#b0e3e6;strokeColor=#0e8088;" vertex="1" parent="1">
          <mxGeometry x="80" y="880" width="200" height="200" as="geometry" />
        </mxCell>
        <mxCell id="g96ALYgHXhLjaabrmShe-73" value="" style="rounded=0;whiteSpace=wrap;html=1;fillColor=default;" vertex="1" parent="1">
          <mxGeometry x="80" y="1080" width="200" height="80" as="geometry" />
        </mxCell>
        <mxCell id="g96ALYgHXhLjaabrmShe-74" value="Product name" style="text;html=1;align=center;verticalAlign=middle;whiteSpace=wrap;rounded=0;fontSize=14;" vertex="1" parent="1">
          <mxGeometry x="80" y="1080" width="100" height="30" as="geometry" />
        </mxCell>
        <mxCell id="g96ALYgHXhLjaabrmShe-75" value="300.000" style="text;html=1;align=center;verticalAlign=middle;whiteSpace=wrap;rounded=0;fontSize=14;" vertex="1" parent="1">
          <mxGeometry x="80" y="1130" width="70" height="30" as="geometry" />
        </mxCell>
        <mxCell id="g96ALYgHXhLjaabrmShe-76" value="" style="rounded=0;whiteSpace=wrap;html=1;fillColor=#b0e3e6;strokeColor=#0e8088;" vertex="1" parent="1">
          <mxGeometry x="301.05" y="880" width="200" height="200" as="geometry" />
        </mxCell>
        <mxCell id="g96ALYgHXhLjaabrmShe-77" value="" style="rounded=0;whiteSpace=wrap;html=1;fillColor=default;" vertex="1" parent="1">
          <mxGeometry x="301.05" y="1080" width="200" height="80" as="geometry" />
        </mxCell>
        <mxCell id="g96ALYgHXhLjaabrmShe-78" value="Product name" style="text;html=1;align=center;verticalAlign=middle;whiteSpace=wrap;rounded=0;fontSize=14;" vertex="1" parent="1">
          <mxGeometry x="301.05" y="1080" width="100" height="30" as="geometry" />
        </mxCell>
        <mxCell id="g96ALYgHXhLjaabrmShe-79" value="300.000" style="text;html=1;align=center;verticalAlign=middle;whiteSpace=wrap;rounded=0;fontSize=14;" vertex="1" parent="1">
          <mxGeometry x="301.05" y="1130" width="70" height="30" as="geometry" />
        </mxCell>
        <mxCell id="g96ALYgHXhLjaabrmShe-80" value="" style="rounded=0;whiteSpace=wrap;html=1;fillColor=#b0e3e6;strokeColor=#0e8088;" vertex="1" parent="1">
          <mxGeometry x="520" y="880" width="200" height="200" as="geometry" />
        </mxCell>
        <mxCell id="g96ALYgHXhLjaabrmShe-81" value="" style="rounded=0;whiteSpace=wrap;html=1;fillColor=default;" vertex="1" parent="1">
          <mxGeometry x="520" y="1080" width="200" height="80" as="geometry" />
        </mxCell>
        <mxCell id="g96ALYgHXhLjaabrmShe-82" value="Product name" style="text;html=1;align=center;verticalAlign=middle;whiteSpace=wrap;rounded=0;fontSize=14;" vertex="1" parent="1">
          <mxGeometry x="520" y="1080" width="100" height="30" as="geometry" />
        </mxCell>
        <mxCell id="g96ALYgHXhLjaabrmShe-83" value="300.000" style="text;html=1;align=center;verticalAlign=middle;whiteSpace=wrap;rounded=0;fontSize=14;" vertex="1" parent="1">
          <mxGeometry x="520" y="1130" width="70" height="30" as="geometry" />
        </mxCell>
        <mxCell id="g96ALYgHXhLjaabrmShe-84" value="" style="rounded=0;whiteSpace=wrap;html=1;fillColor=#b0e3e6;strokeColor=#0e8088;" vertex="1" parent="1">
          <mxGeometry x="740" y="880" width="200" height="200" as="geometry" />
        </mxCell>
        <mxCell id="g96ALYgHXhLjaabrmShe-85" value="" style="rounded=0;whiteSpace=wrap;html=1;fillColor=default;" vertex="1" parent="1">
          <mxGeometry x="740" y="1080" width="200" height="80" as="geometry" />
        </mxCell>
        <mxCell id="g96ALYgHXhLjaabrmShe-86" value="Product name" style="text;html=1;align=center;verticalAlign=middle;whiteSpace=wrap;rounded=0;fontSize=14;" vertex="1" parent="1">
          <mxGeometry x="740" y="1080" width="100" height="30" as="geometry" />
        </mxCell>
        <mxCell id="g96ALYgHXhLjaabrmShe-87" value="300.000" style="text;html=1;align=center;verticalAlign=middle;whiteSpace=wrap;rounded=0;fontSize=14;" vertex="1" parent="1">
          <mxGeometry x="740" y="1130" width="70" height="30" as="geometry" />
        </mxCell>
        <mxCell id="g96ALYgHXhLjaabrmShe-88" value="" style="rounded=0;whiteSpace=wrap;html=1;fillColor=#b0e3e6;strokeColor=#0e8088;" vertex="1" parent="1">
          <mxGeometry x="960" y="880" width="200" height="200" as="geometry" />
        </mxCell>
        <mxCell id="g96ALYgHXhLjaabrmShe-89" value="" style="rounded=0;whiteSpace=wrap;html=1;fillColor=default;" vertex="1" parent="1">
          <mxGeometry x="960" y="1080" width="200" height="80" as="geometry" />
        </mxCell>
        <mxCell id="g96ALYgHXhLjaabrmShe-90" value="Product name" style="text;html=1;align=center;verticalAlign=middle;whiteSpace=wrap;rounded=0;fontSize=14;" vertex="1" parent="1">
          <mxGeometry x="960" y="1080" width="100" height="30" as="geometry" />
        </mxCell>
        <mxCell id="g96ALYgHXhLjaabrmShe-91" value="300.000" style="text;html=1;align=center;verticalAlign=middle;whiteSpace=wrap;rounded=0;fontSize=14;" vertex="1" parent="1">
          <mxGeometry x="960" y="1130" width="70" height="30" as="geometry" />
        </mxCell>
        <mxCell id="g96ALYgHXhLjaabrmShe-92" value="" style="rounded=0;whiteSpace=wrap;html=1;fillColor=default;" vertex="1" parent="1">
          <mxGeometry x="-160" y="1200" width="1200" height="360" as="geometry" />
        </mxCell>
        <mxCell id="g96ALYgHXhLjaabrmShe-93" value="Top Brands" style="text;strokeColor=none;fillColor=none;html=1;fontSize=24;fontStyle=0;verticalAlign=middle;align=center;" vertex="1" parent="1">
          <mxGeometry x="325" y="1240" width="200" height="40" as="geometry" />
        </mxCell>
        <mxCell id="g96ALYgHXhLjaabrmShe-94" value="&lt;font style=&quot;font-size: 16px;&quot;&gt;VIEW ALL&lt;/font&gt;" style="rounded=0;whiteSpace=wrap;html=1;fillColor=none;" vertex="1" parent="1">
          <mxGeometry x="385.5" y="1490" width="109" height="30" as="geometry" />
        </mxCell>
        <mxCell id="g96ALYgHXhLjaabrmShe-95" value="" style="ellipse;whiteSpace=wrap;html=1;aspect=fixed;fillColor=#b0e3e6;strokeColor=#0e8088;" vertex="1" parent="1">
          <mxGeometry x="301.05" y="1320" width="120" height="120" as="geometry" />
        </mxCell>
        <mxCell id="g96ALYgHXhLjaabrmShe-98" value="" style="ellipse;whiteSpace=wrap;html=1;aspect=fixed;fillColor=#b0e3e6;strokeColor=#0e8088;" vertex="1" parent="1">
          <mxGeometry x="-20" y="1320" width="120" height="120" as="geometry" />
        </mxCell>
        <mxCell id="g96ALYgHXhLjaabrmShe-99" value="" style="ellipse;whiteSpace=wrap;html=1;aspect=fixed;fillColor=#b0e3e6;strokeColor=#0e8088;" vertex="1" parent="1">
          <mxGeometry x="780" y="1320" width="120" height="120" as="geometry" />
        </mxCell>
        <mxCell id="g96ALYgHXhLjaabrmShe-100" value="" style="ellipse;whiteSpace=wrap;html=1;aspect=fixed;fillColor=#b0e3e6;strokeColor=#0e8088;" vertex="1" parent="1">
          <mxGeometry x="618.95" y="1320" width="120" height="120" as="geometry" />
        </mxCell>
        <mxCell id="g96ALYgHXhLjaabrmShe-101" value="" style="ellipse;whiteSpace=wrap;html=1;aspect=fixed;fillColor=#b0e3e6;strokeColor=#0e8088;" vertex="1" parent="1">
          <mxGeometry x="458.95" y="1320" width="120" height="120" as="geometry" />
        </mxCell>
        <mxCell id="g96ALYgHXhLjaabrmShe-102" value="&lt;font style=&quot;font-size: 16px;&quot;&gt;Brand XXX&lt;/font&gt;" style="text;html=1;align=center;verticalAlign=middle;whiteSpace=wrap;rounded=0;" vertex="1" parent="1">
          <mxGeometry x="-10" y="1440" width="100" height="30" as="geometry" />
        </mxCell>
        <mxCell id="g96ALYgHXhLjaabrmShe-104" value="&lt;font style=&quot;font-size: 16px;&quot;&gt;Brand XXX&lt;/font&gt;" style="text;html=1;align=center;verticalAlign=middle;whiteSpace=wrap;rounded=0;" vertex="1" parent="1">
          <mxGeometry x="311.05" y="1440" width="100" height="30" as="geometry" />
        </mxCell>
        <mxCell id="g96ALYgHXhLjaabrmShe-105" value="&lt;font style=&quot;font-size: 16px;&quot;&gt;Brand XXX&lt;/font&gt;" style="text;html=1;align=center;verticalAlign=middle;whiteSpace=wrap;rounded=0;" vertex="1" parent="1">
          <mxGeometry x="468.95" y="1440" width="100" height="30" as="geometry" />
        </mxCell>
        <mxCell id="g96ALYgHXhLjaabrmShe-106" value="&lt;font style=&quot;font-size: 16px;&quot;&gt;Brand XXX&lt;/font&gt;" style="text;html=1;align=center;verticalAlign=middle;whiteSpace=wrap;rounded=0;" vertex="1" parent="1">
          <mxGeometry x="628.95" y="1440" width="100" height="30" as="geometry" />
        </mxCell>
        <mxCell id="g96ALYgHXhLjaabrmShe-107" value="&lt;font style=&quot;font-size: 16px;&quot;&gt;Brand XXX&lt;/font&gt;" style="text;html=1;align=center;verticalAlign=middle;whiteSpace=wrap;rounded=0;" vertex="1" parent="1">
          <mxGeometry x="790" y="1440" width="100" height="30" as="geometry" />
        </mxCell>
        <mxCell id="g96ALYgHXhLjaabrmShe-108" value="" style="ellipse;whiteSpace=wrap;html=1;aspect=fixed;fillColor=#b0e3e6;strokeColor=#0e8088;" vertex="1" parent="1">
          <mxGeometry x="140" y="1320" width="120" height="120" as="geometry" />
        </mxCell>
        <mxCell id="g96ALYgHXhLjaabrmShe-109" value="&lt;font style=&quot;font-size: 16px;&quot;&gt;Brand XXX&lt;/font&gt;" style="text;html=1;align=center;verticalAlign=middle;whiteSpace=wrap;rounded=0;" vertex="1" parent="1">
          <mxGeometry x="150" y="1440" width="100" height="30" as="geometry" />
        </mxCell>
      </root>
    </mxGraphModel>
  </diagram>
</mxfile>
